<?xml version="1.0" encoding="utf-8"?>
<!-- Generator: Adobe Illustrator 16.0.0, SVG Export Plug-In . SVG Version: 6.00 Build 0)  -->
<!DOCTYPE svg PUBLIC "-//W3C//DTD SVG 1.1//EN" "http://www.w3.org/Graphics/SVG/1.1/DTD/svg11.dtd">
<svg version="1.1" id="Layer_1" xmlns="http://www.w3.org/2000/svg" xmlns:xlink="http://www.w3.org/1999/xlink" x="0px" y="0px"
	 width="121.992px" height="45.508px" viewBox="0 0 121.992 45.508" enable-background="new 0 0 121.992 45.508"
	 xml:space="preserve">
<g>
	<path fill="#FFFFFF" d="M59.227,31.985c-0.118-0.669-0.227-1.332-0.326-1.99c-0.099-0.656-0.149-1.313-0.149-1.971
		c0-0.559,0.043-1.129,0.13-1.711c0.086-0.584,0.272-1.104,0.558-1.562l-0.316-0.224c-0.409,0.322-0.753,0.704-1.032,1.144
		c-0.279,0.44-0.505,0.908-0.679,1.404c-0.447,0.484-0.955,0.902-1.525,1.256s-1.19,0.529-1.86,0.529
		c-0.434,0-0.791-0.096-1.07-0.287c-0.279-0.192-0.499-0.438-0.66-0.735s-0.276-0.632-0.344-1.005
		c-0.068-0.371-0.102-0.736-0.102-1.097c0-0.546,0.096-1.126,0.288-1.739c0.192-0.614,0.465-1.181,0.818-1.702
		c0.354-0.521,0.784-0.952,1.293-1.293c0.508-0.341,1.079-0.511,1.711-0.511c0.248,0,0.471,0.062,0.67,0.186
		c0.198,0.124,0.363,0.282,0.493,0.474c0.13,0.192,0.229,0.403,0.298,0.632c0.068,0.229,0.102,0.456,0.102,0.679
		c0,0.149-0.019,0.304-0.056,0.465s-0.105,0.297-0.205,0.409l0.074,0.223c0.198-0.086,0.403-0.192,0.614-0.316
		c0.211-0.124,0.403-0.263,0.577-0.418c0.174-0.155,0.316-0.332,0.428-0.53c0.112-0.198,0.167-0.421,0.167-0.67
		c0-0.347-0.078-0.645-0.232-0.893c-0.155-0.248-0.36-0.453-0.614-0.614c-0.254-0.161-0.533-0.282-0.837-0.363
		c-0.304-0.081-0.604-0.121-0.902-0.121c-0.595,0-1.178,0.109-1.748,0.326c-0.571,0.217-1.113,0.515-1.628,0.893
		c-0.515,0.378-0.989,0.819-1.423,1.321c-0.434,0.502-0.809,1.036-1.125,1.6c-0.316,0.565-0.564,1.147-0.744,1.749
		s-0.27,1.182-0.27,1.738c0,0.383,0.058,0.749,0.147,1.104c-0.18,0.129-0.359,0.258-0.557,0.366
		c-0.521,0.285-1.091,0.428-1.711,0.428c-0.508,0-0.924-0.084-1.246-0.252c-0.323-0.167-0.577-0.396-0.763-0.688
		s-0.316-0.636-0.391-1.033c-0.074-0.396-0.111-0.818-0.111-1.264c0-0.435,0.031-0.875,0.093-1.321s0.161-0.88,0.298-1.302
		l-0.242-0.149c-0.261,0.297-0.512,0.639-0.753,1.023c-0.242,0.384-0.456,0.79-0.642,1.218c-0.186,0.428-0.338,0.862-0.456,1.303
		c-0.118,0.439-0.183,0.858-0.195,1.256c-0.36,0.272-0.744,0.492-1.153,0.66c-0.409,0.167-0.837,0.25-1.284,0.25
		c-0.421,0-0.769-0.083-1.042-0.25c-0.273-0.168-0.487-0.391-0.642-0.67c-0.155-0.279-0.264-0.589-0.326-0.93
		c-0.062-0.342-0.093-0.691-0.093-1.051c0-0.509,0.086-1.079,0.26-1.712c0.173-0.632,0.425-1.228,0.753-1.786
		c0.328-0.558,0.731-1.026,1.209-1.404c0.477-0.378,1.02-0.567,1.627-0.567c0.26,0,0.493,0.034,0.697,0.102
		c0.205,0.068,0.384,0.146,0.54,0.232c0.155,0.087,0.294,0.165,0.418,0.232c0.124,0.068,0.242,0.103,0.354,0.103
		c0.136,0,0.254-0.053,0.354-0.158c0.099-0.105,0.148-0.226,0.148-0.363c0-0.21-0.065-0.384-0.195-0.521
		c-0.13-0.136-0.288-0.242-0.474-0.316c-0.186-0.074-0.378-0.127-0.577-0.158c-0.198-0.031-0.366-0.046-0.502-0.046
		c-0.595,0-1.178,0.112-1.749,0.335s-1.113,0.527-1.627,0.911c-0.515,0.385-0.989,0.831-1.423,1.339
		c-0.434,0.509-0.809,1.048-1.125,1.618c-0.316,0.57-0.564,1.15-0.744,1.739s-0.27,1.163-0.27,1.72c0,0.484,0.071,0.946,0.214,1.387
		c0.143,0.439,0.35,0.821,0.623,1.144c0.273,0.323,0.611,0.579,1.014,0.772c0.403,0.191,0.865,0.287,1.386,0.287
		c0.707,0,1.379-0.176,2.018-0.529s1.218-0.791,1.739-1.312c0.161,0.595,0.458,1.089,0.893,1.479
		c0.434,0.39,0.992,0.585,1.674,0.585c0.483,0,0.973-0.093,1.469-0.278c0.496-0.187,0.964-0.438,1.404-0.754
		c0.44-0.316,0.84-0.672,1.2-1.069c0.027-0.029,0.047-0.062,0.073-0.092c0.136,0.339,0.306,0.649,0.532,0.91
		c0.279,0.323,0.62,0.579,1.023,0.772c0.403,0.191,0.858,0.287,1.367,0.287c0.818,0,1.584-0.226,2.297-0.678
		c0.713-0.453,1.342-1.002,1.888-1.646c-0.087,0.459-0.146,0.911-0.177,1.357c-0.031,0.447-0.046,0.881-0.046,1.303
		c0,0.595,0.037,1.178,0.111,1.748c0.075,0.57,0.152,1.137,0.232,1.701s0.158,1.132,0.232,1.703
		c0.075,0.569,0.112,1.152,0.112,1.748c0,0.682-0.071,1.416-0.214,2.203c-0.143,0.788-0.384,1.517-0.726,2.186
		c-0.341,0.67-0.797,1.229-1.367,1.675c-0.571,0.446-1.284,0.669-2.139,0.669c-0.608,0-1.144-0.121-1.609-0.362
		s-0.853-0.562-1.163-0.958s-0.542-0.858-0.697-1.386c-0.155-0.526-0.233-1.069-0.233-1.628c0-1.363,0.329-2.609,0.986-3.738
		c0.657-1.128,1.587-2.015,2.79-2.66l-0.111-0.241c-0.658,0.261-1.299,0.61-1.925,1.051c-0.626,0.44-1.188,0.948-1.683,1.525
		c-0.496,0.577-0.896,1.206-1.2,1.888s-0.456,1.395-0.456,2.139c0,0.67,0.13,1.312,0.391,1.926c0.261,0.613,0.617,1.153,1.07,1.618
		c0.452,0.465,0.982,0.833,1.59,1.106c0.607,0.273,1.252,0.409,1.934,0.409c0.124,0,0.235-0.007,0.335-0.019
		c0.099-0.012,0.205-0.031,0.316-0.056c1.128-0.149,2.092-0.527,2.892-1.135s1.454-1.352,1.962-2.231
		c0.508-0.881,0.88-1.845,1.116-2.893s0.354-2.074,0.354-3.078c0-0.707-0.05-1.402-0.149-2.084S59.345,32.655,59.227,31.985z"/>
	<path fill="#FFFFFF" d="M86.392,21.551c-0.322-0.496-0.725-0.905-1.209-1.228c-0.483-0.322-1.042-0.484-1.674-0.484
		c-0.186,0-0.403,0.041-0.651,0.121c-0.249,0.081-0.484,0.192-0.707,0.335s-0.416,0.307-0.577,0.493s-0.242,0.391-0.242,0.614
		c0,0.112,0.031,0.205,0.093,0.279c0.062,0.074,0.136,0.133,0.223,0.176c0.086,0.044,0.18,0.081,0.279,0.112
		c0.099,0.031,0.192,0.053,0.279,0.065c0.211,0.062,0.406,0.118,0.586,0.167c0.18,0.05,0.369,0.124,0.567,0.223
		c0.347,0.174,0.67,0.394,0.967,0.661c0.298,0.267,0.552,0.564,0.763,0.893c0.21,0.329,0.375,0.683,0.493,1.06
		c0.118,0.379,0.177,0.767,0.177,1.163c0,0.409-0.083,0.804-0.251,1.181c-0.167,0.379-0.391,0.717-0.669,1.014
		c-0.279,0.299-0.604,0.533-0.977,0.707s-0.769,0.261-1.19,0.261c-0.67,0-1.265-0.161-1.786-0.483
		c-0.521-0.322-0.955-0.738-1.302-1.246c-0.347-0.509-0.611-1.07-0.791-1.684s-0.27-1.219-0.27-1.813
		c0-0.818,0.149-1.593,0.446-2.325c0.298-0.731,0.707-1.401,1.228-2.009l-0.223-0.167c-0.521,0.335-1.004,0.71-1.451,1.125
		s-0.831,0.868-1.153,1.358s-0.574,1.02-0.753,1.59c-0.18,0.57-0.27,1.172-0.27,1.804c0,0.757,0.118,1.467,0.354,2.13
		c0.022,0.063,0.058,0.116,0.083,0.178c-0.164,0.206-0.332,0.413-0.526,0.622c-0.248,0.268-0.515,0.502-0.8,0.707
		c-0.286,0.205-0.586,0.372-0.902,0.502c-0.316,0.131-0.642,0.195-0.976,0.195c-0.41,0-0.763-0.168-1.061-0.502
		c-0.297-0.335-0.552-0.766-0.763-1.293s-0.384-1.115-0.521-1.767c-0.137-0.651-0.251-1.299-0.344-1.944
		c-0.093-0.644-0.17-1.252-0.232-1.822s-0.124-1.035-0.186-1.395c-0.025-0.136-0.059-0.276-0.102-0.418
		c-0.044-0.143-0.106-0.27-0.186-0.381c-0.081-0.112-0.183-0.205-0.307-0.279c-0.124-0.074-0.279-0.111-0.465-0.111
		c-0.323,0-0.592,0.083-0.809,0.251c-0.217,0.167-0.431,0.369-0.642,0.604c-0.435,0.496-0.859,1.107-1.274,1.832
		c-0.416,0.726-0.8,1.488-1.153,2.289c-0.353,0.799-0.663,1.593-0.93,2.381c-0.267,0.787-0.468,1.49-0.604,2.11
		c-0.162-1.55-0.249-3.165-0.261-4.845c-0.012-1.681,0.143-3.333,0.465-4.958c0.012-0.062-0.006-0.111-0.056-0.149
		c-0.049-0.037-0.111-0.065-0.186-0.083c-0.075-0.019-0.152-0.028-0.233-0.028s-0.139,0-0.176,0c-0.298,0-0.583,0.041-0.856,0.121
		s-0.508,0.205-0.707,0.372c-0.199,0.167-0.357,0.378-0.475,0.633c-0.118,0.254-0.177,0.555-0.177,0.902
		c0,1.438,0.071,2.877,0.214,4.315c0.142,1.438,0.393,2.945,0.753,4.52c0.062,0.285,0.165,0.539,0.307,0.763
		c0.142,0.224,0.375,0.335,0.697,0.335c0.198,0,0.378-0.053,0.54-0.158s0.3-0.236,0.418-0.391c0.118-0.155,0.217-0.326,0.298-0.512
		c0.08-0.186,0.139-0.365,0.176-0.539c0.198-0.807,0.456-1.625,0.772-2.455c0.316-0.831,0.648-1.6,0.995-2.307
		s0.688-1.324,1.023-1.851c0.335-0.527,0.62-0.884,0.856-1.07c0.049,0.521,0.105,1.107,0.167,1.758s0.155,1.311,0.279,1.981
		c0.124,0.67,0.282,1.327,0.474,1.972s0.446,1.218,0.763,1.72c0.316,0.503,0.698,0.906,1.144,1.209
		c0.446,0.305,0.979,0.457,1.6,0.457c0.545,0,1.029-0.094,1.451-0.279c0.421-0.187,0.8-0.435,1.135-0.744
		c0.334-0.311,0.635-0.67,0.902-1.079c0.204-0.313,0.391-0.646,0.576-0.981c0.222,0.498,0.49,0.96,0.844,1.354
		c0.446,0.496,0.982,0.89,1.609,1.182C79.959,30.854,80.663,31,81.444,31c0.88,0,1.683-0.155,2.409-0.465
		c0.725-0.31,1.348-0.737,1.869-1.284c0.521-0.545,0.924-1.189,1.209-1.934s0.428-1.55,0.428-2.418c0-0.546-0.081-1.116-0.242-1.711
		S86.714,22.047,86.392,21.551z"/>
	<path fill="#FFFFFF" d="M104.478,17.748c0.188,0,0.372-0.047,0.551-0.141c0.179-0.094,0.337-0.214,0.474-0.36
		s0.248-0.313,0.333-0.502c0.084-0.188,0.127-0.377,0.127-0.565c0-0.235-0.075-0.429-0.226-0.58s-0.349-0.226-0.594-0.226
		c-0.188,0-0.37,0.045-0.544,0.134c-0.174,0.089-0.33,0.205-0.466,0.346c-0.137,0.142-0.247,0.304-0.332,0.488
		c-0.084,0.184-0.127,0.37-0.127,0.558c0,0.246,0.073,0.448,0.219,0.608C104.037,17.668,104.232,17.748,104.478,17.748z"/>
	<path fill="#FFFFFF" d="M121.844,27.651c-0.397,0.436-0.856,0.795-1.376,1.08c-0.521,0.285-1.091,0.428-1.711,0.428
		c-0.508,0-0.924-0.084-1.246-0.252c-0.323-0.167-0.577-0.396-0.763-0.688s-0.316-0.636-0.391-1.033
		c-0.074-0.396-0.111-0.818-0.111-1.264c0-0.435,0.031-0.875,0.093-1.321s0.161-0.88,0.298-1.302l-0.242-0.149
		c-0.261,0.297-0.512,0.639-0.753,1.023c-0.242,0.384-0.456,0.79-0.642,1.218c-0.186,0.428-0.338,0.862-0.456,1.303
		c-0.118,0.439-0.183,0.858-0.195,1.256c-0.36,0.272-0.744,0.492-1.153,0.66c-0.409,0.167-0.837,0.25-1.284,0.25
		c-0.421,0-0.769-0.083-1.042-0.25c-0.273-0.168-0.487-0.391-0.642-0.67c-0.155-0.279-0.264-0.589-0.326-0.93
		c-0.062-0.342-0.093-0.691-0.093-1.051c0-0.509,0.086-1.079,0.26-1.712c0.173-0.632,0.425-1.228,0.753-1.786
		c0.328-0.558,0.731-1.026,1.209-1.404c0.477-0.378,1.02-0.567,1.627-0.567c0.26,0,0.493,0.034,0.697,0.102
		c0.205,0.068,0.384,0.146,0.54,0.232c0.155,0.087,0.294,0.165,0.418,0.232c0.124,0.068,0.242,0.103,0.354,0.103
		c0.136,0,0.254-0.053,0.354-0.158c0.099-0.105,0.148-0.226,0.148-0.363c0-0.21-0.065-0.384-0.195-0.521
		c-0.13-0.136-0.288-0.242-0.474-0.316c-0.186-0.074-0.378-0.127-0.577-0.158c-0.198-0.031-0.366-0.046-0.502-0.046
		c-0.595,0-1.178,0.112-1.749,0.335s-1.113,0.527-1.627,0.911c-0.515,0.385-0.989,0.831-1.423,1.339
		c-0.434,0.509-0.809,1.048-1.125,1.618c-0.316,0.57-0.564,1.15-0.744,1.739s-0.27,1.163-0.27,1.72c0,0.182,0.02,0.356,0.04,0.532
		c-0.488,0.405-1.019,0.756-1.609,1.03c-0.664,0.311-1.361,0.466-2.093,0.466c-0.62,0-1.147-0.118-1.581-0.354
		s-0.79-0.552-1.069-0.948c-0.279-0.396-0.483-0.854-0.614-1.367c-0.13-0.515-0.195-1.051-0.195-1.609
		c0-0.967,0.189-1.897,0.567-2.79c0.378-0.893,0.871-1.699,1.479-2.418l-0.223-0.167c-0.57,0.372-1.106,0.794-1.609,1.265
		c-0.502,0.471-0.939,0.989-1.311,1.553c-0.372,0.564-0.664,1.169-0.875,1.813s-0.316,1.327-0.316,2.047
		c0,0.669,0.096,1.286,0.288,1.85c0.013,0.037,0.033,0.067,0.046,0.104l-0.002-0.001c-0.36,0.459-0.75,0.807-1.172,1.042
		c-0.422,0.235-0.924,0.354-1.506,0.354c-0.583,0-1.101-0.189-1.553-0.567s-0.853-0.874-1.2-1.488s-0.642-1.313-0.884-2.102
		c-0.242-0.788-0.449-1.597-0.623-2.427c0.856-0.633,1.656-1.417,2.399-2.353c0.744-0.936,1.392-1.978,1.944-3.125
		c0.552-1.146,0.986-2.368,1.302-3.664c0.316-1.295,0.474-2.613,0.474-3.953c0-0.496-0.041-1.06-0.121-1.692
		s-0.239-1.23-0.474-1.795c-0.236-0.564-0.558-1.039-0.967-1.423s-0.942-0.577-1.6-0.577c-0.769,0-1.451,0.22-2.046,0.66
		c-0.595,0.44-1.119,1.023-1.572,1.749s-0.837,1.56-1.153,2.501c-0.316,0.943-0.574,1.913-0.772,2.911s-0.341,1.987-0.428,2.967
		s-0.13,1.878-0.13,2.697c0,0.669,0.046,1.454,0.139,2.353c0.093,0.899,0.242,1.832,0.447,2.799s0.465,1.919,0.781,2.855
		c0.316,0.937,0.7,1.776,1.153,2.521c0.453,0.743,0.977,1.345,1.572,1.804S93.689,31,94.446,31c0.917,0,1.736-0.239,2.455-0.716
		c0.679-0.45,1.208-1.059,1.601-1.812c0.182,0.431,0.404,0.827,0.699,1.161c0.366,0.415,0.818,0.741,1.358,0.977
		s1.156,0.354,1.851,0.354c0.558,0,1.101-0.081,1.627-0.241c0.527-0.162,1.023-0.389,1.488-0.68s0.893-0.633,1.283-1.023
		c0.284-0.284,0.531-0.598,0.76-0.924c0.034,0.187,0.073,0.373,0.131,0.553c0.143,0.439,0.35,0.821,0.623,1.144
		c0.273,0.323,0.611,0.579,1.014,0.772c0.403,0.191,0.865,0.287,1.386,0.287c0.707,0,1.379-0.176,2.018-0.529
		s1.218-0.791,1.739-1.312c0.161,0.595,0.458,1.089,0.893,1.479c0.434,0.39,0.992,0.585,1.674,0.585
		c0.483,0,0.973-0.093,1.469-0.278c0.496-0.187,0.964-0.438,1.404-0.754c0.44-0.316,0.84-0.672,1.2-1.069
		c0.359-0.396,0.651-0.812,0.874-1.246L121.844,27.651z M91.098,20.714c-0.062-0.545-0.109-1.057-0.14-1.535
		c-0.031-0.477-0.05-0.914-0.056-1.311c-0.007-0.397-0.003-0.732,0.009-1.004c0-0.236,0.019-0.67,0.056-1.302
		s0.105-1.349,0.205-2.148c0.099-0.8,0.232-1.633,0.4-2.501c0.167-0.868,0.378-1.662,0.632-2.381
		c0.254-0.719,0.558-1.311,0.912-1.776c0.353-0.465,0.765-0.697,1.237-0.697c0.248,0,0.462,0.078,0.642,0.232
		c0.18,0.155,0.329,0.354,0.446,0.595s0.211,0.511,0.279,0.809c0.068,0.297,0.121,0.595,0.158,0.893
		c0.038,0.298,0.059,0.577,0.065,0.837c0.006,0.261,0.009,0.472,0.009,0.633c0,1.252-0.084,2.458-0.251,3.618
		c-0.167,1.16-0.437,2.263-0.809,3.311c-0.372,1.048-0.849,2.024-1.432,2.93s-1.29,1.729-2.12,2.474
		C91.24,21.818,91.16,21.26,91.098,20.714z"/>
	<path fill="#FFFFFF" d="M38.391,6.855c0.38-1.054-0.571-2.209-1.828-2.476c-0.533,1.295-1.066,2.818-1.6,4.494l-7.646,12.161
		c0.952-5.599,1.74-11.589,3.72-16.959c0.114-0.381,0.152-0.762,0.152-1.143c0-0.952-0.305-1.866-0.838-2.742L29.742,0
		C18.455,28.331,11.759,30.331,7.455,30.331c-2.742,0-5.25-0.875-5.25-4.995c0-4.266,4.513-6.63,7.75-6.63
		c1.066,0,2.436,1.204,3.54,1.204c0.988,0,1.473-0.41,1.777-0.867c0-1.638-3.009-1.638-4.799-1.638C5.637,17.405,0,20.604,0,25.822
		c0,3.313,2.285,6.398,6.932,6.398c10.474,0,14.461-12.327,19.836-20.03c-1.284,9.324-1.617,10.74-3.63,20.021l0.4,1.266
		c0.936-1.318,1.626-2.672,2.655-4.006c0.114-1.523,0.879-4.602,1.031-6.125l8.331-13.238c-4.905,17.96-1.772,29.406,3.217,29.71
		l0.184-0.422C35.945,37.646,31.622,25.623,38.391,6.855z"/>
</g>
</svg>
